<svg width="30" height="15" viewBox="0 0 38 19" fill="none" xmlns="http://www.w3.org/2000/svg">
<path fill-rule="evenodd" clip-rule="evenodd" d="M27.6338 0.270204C27.8715 0.0722561 28.178 -0.023209 28.486 0.00479464C28.7941 0.0327983 29.0784 0.181978 29.2765 0.41954L37.0537 9.75311C37.1561 9.8702 37.2341 10.0066 37.283 10.1543C37.332 10.3019 37.3509 10.4579 37.3387 10.613C37.3265 10.7681 37.2833 10.9192 37.2119 11.0573C37.1404 11.1955 37.042 11.318 36.9225 11.4176C36.803 11.5172 36.6648 11.5919 36.516 11.6373C36.3672 11.6826 36.2108 11.6978 36.056 11.6819C35.9013 11.6659 35.7513 11.6192 35.6149 11.5444C35.4784 11.4697 35.3583 11.3684 35.2616 11.2465L27.4844 1.91291C27.2865 1.67524 27.191 1.36868 27.219 1.06064C27.247 0.752601 27.3962 0.468288 27.6338 0.270204Z" fill="white"/>
<path fill-rule="evenodd" clip-rule="evenodd" d="M27.6338 18.1036C27.3962 17.951 27.247 17.7321 27.219 17.4949C27.191 17.2577 27.2865 17.0217 27.4844 16.8386L35.2616 9.6516C35.3583 9.55776 35.4784 9.47975 35.6149 9.42218C35.7513 9.36461 35.9013 9.32862 36.056 9.31635C36.2108 9.30407 36.3672 9.31575 36.516 9.35069C36.6648 9.38564 36.803 9.44315 36.9225 9.51984C37.042 9.59653 37.1404 9.69085 37.2119 9.79725C37.2833 9.90365 37.3265 10.02 37.3387 10.1394C37.3509 10.2588 37.332 10.3789 37.283 10.4926C37.2341 10.6063 37.1561 10.7114 37.0537 10.8015L29.2765 17.9886C29.0784 18.1715 28.7941 18.2864 28.486 18.3079C28.178 18.3295 27.8715 18.256 27.6338 18.1036Z" fill="white"/>
<path fill-rule="evenodd" clip-rule="evenodd" d="M35.001 10.2242C35.001 10.4629 34.8254 10.6918 34.5128 10.8606C34.2002 11.0293 33.7763 11.1242 33.3343 11.1242L1.66679 11.1242C1.22475 11.1242 0.800819 11.0293 0.488251 10.8606C0.175682 10.6918 8.39233e-05 10.4629 8.39233e-05 10.2242C8.39233e-05 9.98546 0.175682 9.75654 0.488251 9.58776C0.800819 9.41898 1.22475 9.32416 1.66679 9.32416L33.3343 9.32416C33.7763 9.32416 34.2002 9.41898 34.5128 9.58776C34.8254 9.75654 35.001 9.98546 35.001 10.2242Z" fill="white"/>
</svg>
