<svg width="25" height="25" viewBox="0 0 30 33" fill="none" xmlns="http://www.w3.org/2000/svg">
<path d="M22.9786 9.7935C24.7936 9.39045 27.1578 7.58894 27.5176 6.7017C27.7286 6.18235 26.6763 5.37085 26.395 5.04355C25.7512 4.29697 26.0109 3.9291 26.2597 3.03916C26.5438 2.02749 25.8702 0.910338 24.9154 0.472131C23.9605 0.0339239 22.819 0.171878 21.8587 0.599265C20.8985 1.02665 20.0789 1.71372 19.2755 2.38996C18.6885 2.01938 17.7526 0.382867 16.2378 1.44592C15.191 2.17897 15.0963 3.77491 15.2315 5.04896C15.548 7.98927 16.273 9.51488 17.639 9.92604C19.3648 10.4454 21.2745 10.1722 22.9786 9.7935Z" fill="#F14810"/>
<path d="M25.9271 1.33502C25.6972 5.29782 21.8318 7.92706 19.9978 9.08479L21.188 10.1073C21.188 10.1073 21.9427 10.1235 22.976 9.7935C24.7478 9.23086 27.3364 7.64033 27.515 6.7017C27.7774 5.33569 26.3762 5.63324 26.0597 4.55395C25.8947 3.9832 26.8631 2.90391 25.9271 1.33502ZM19.2783 2.39267C19.2783 2.39267 18.5885 1.68667 18.0773 1.36478C17.823 1.84356 17.6418 2.36291 17.5525 2.8985C17.3929 3.83983 17.5525 5.17609 17.9285 6.17153C17.988 6.32571 18.2098 6.30137 18.2342 6.13907C18.5588 3.99943 19.2783 2.39267 19.2783 2.39267Z" fill="#BD3306"/>
<path d="M14.4579 9.44456C14.4579 9.44456 6.02108 10.3561 2.21517 17.6812C-1.59073 25.0063 1.64442 29.4479 5.06893 31.0655C8.49344 32.6831 17.1223 33.2538 22.7352 31.923C28.348 30.5921 29.7519 27.833 29.4895 25.1686C29.1081 21.2789 25.4942 18.8877 25.4942 18.8877C25.4942 18.8877 25.6376 14.0836 21.9101 10.9648C18.602 8.19486 14.4579 9.44456 14.4579 9.44456Z" fill="#F14810"/>
<path d="M17.9202 21.7712C16.1106 19.4882 13.9737 19.1825 13.2893 18.3629C12.916 17.9166 12.6969 17.4649 12.7808 16.9049C12.87 16.3098 13.5598 15.8987 14.0954 15.7986C14.7203 15.6796 16.2107 15.7418 17.4631 16.9347C17.7607 17.216 17.6525 17.6542 17.6443 18.0464C17.6227 18.8877 18.8264 19.7046 19.8002 19.0013C20.7767 18.2953 20.0274 16.7237 19.3972 15.9609C18.9211 15.3847 17.1953 14.1161 15.0503 13.9159C14.4471 13.8591 12.0207 13.4994 10.6195 16.1638C10.2165 16.9293 10.0677 18.7795 12.1776 20.343C12.6185 20.6703 14.9069 21.8334 15.5426 22.5881C16.6435 23.8946 15.8888 25.0442 15.0286 25.1957C12.6834 25.6069 11.3553 24.3382 11.1091 23.643C10.9333 23.148 11.1172 22.6124 10.89 22.1472C10.6574 21.6684 10.1813 21.479 9.67817 21.6386C8.02813 22.1634 8.5529 23.9676 9.28324 24.9604C10.065 26.0234 11.0252 26.6645 12.1045 27.0161C16.1323 28.3281 18.069 26.256 18.4071 24.7386C18.656 23.6268 18.629 22.6638 17.9202 21.7712Z" fill="white"/>
<path d="M16.9463 12.3741C13.5191 19.6937 12.9294 28.9367 12.9294 28.9367" stroke="white" stroke-width="1.35249" stroke-miterlimit="10"/>
<path d="M19.7894 7.76745C22.0724 8.51132 22.5782 10.5752 22.4132 11.1379C22.2157 11.7979 19.6866 9.22814 15.9266 9.38232C14.612 9.43642 14.9934 8.63034 15.602 8.16508C16.4054 7.55105 17.7552 7.10743 19.7894 7.76745Z" fill="#6D4C41"/>
<path d="M19.7894 7.76745C22.0724 8.51132 22.5782 10.5752 22.4132 11.1379C22.2157 11.7979 19.6866 9.22814 15.9266 9.38232C14.612 9.43642 14.9934 8.63034 15.602 8.16508C16.4054 7.55105 17.7552 7.10743 19.7894 7.76745Z" fill="#6B4B46"/>
<path d="M23.7981 15.0439C24.0848 14.8464 25.0478 15.1873 25.3183 17.0726C25.4508 17.995 25.4914 18.8877 25.4914 18.8877C25.4914 18.8877 24.3553 17.8679 23.9793 17.1511C23.5059 16.2449 23.322 15.3685 23.7981 15.0439Z" fill="#F14810"/>
</svg>
