<svg width="1920" height="286" viewBox="0 0 1920 286" fill="none" xmlns="http://www.w3.org/2000/svg">
<g clip-path="url(#clip0_3340_83)">
<g opacity="0.07">
<rect x="469.657" y="58.1213" width="110.559" height="91.5069" stroke="white" stroke-width="15.2993"/>
<rect x="504.009" y="91.6065" width="110.559" height="91.5069" stroke="white" stroke-width="15.2993"/>
<rect x="504.256" y="215.432" width="110.559" height="91.5069" stroke="white" stroke-width="15.2993"/>
<rect x="538.608" y="248.917" width="110.559" height="91.5069" stroke="white" stroke-width="15.2993"/>
<rect x="676.501" y="286.887" width="110.559" height="91.5069" stroke="white" stroke-width="15.2993"/>
<rect x="607.302" y="-30.5239" width="110.559" height="91.5069" stroke="white" stroke-width="15.2993"/>
<rect x="641.654" y="2.9614" width="110.559" height="91.5069" stroke="white" stroke-width="15.2993"/>
<rect x="641.902" y="128.182" width="110.559" height="91.5069" stroke="white" stroke-width="15.2993"/>
<rect x="676.254" y="161.667" width="110.559" height="91.5069" stroke="white" stroke-width="15.2993"/>
<rect x="780.299" y="40.1791" width="110.559" height="91.5069" stroke="white" stroke-width="15.2993"/>
<rect x="814.651" y="73.6644" width="110.559" height="91.5069" stroke="white" stroke-width="15.2993"/>
<rect x="814.898" y="198.885" width="110.559" height="91.5069" stroke="white" stroke-width="15.2993"/>
<rect x="849.25" y="232.37" width="110.559" height="91.5069" stroke="white" stroke-width="15.2993"/>
<rect x="780.051" y="-84.2891" width="110.559" height="91.5069" stroke="white" stroke-width="15.2993"/>
<rect x="469.41" y="-66.9893" width="110.559" height="91.5069" stroke="white" stroke-width="15.2993"/>
<rect x="-20.751" y="12.2395" width="110.559" height="91.5069" stroke="white" stroke-width="15.2993"/>
<rect x="13.6008" y="45.7248" width="110.559" height="91.5069" stroke="white" stroke-width="15.2993"/>
<rect x="13.8484" y="169.551" width="110.559" height="91.5069" stroke="white" stroke-width="15.2993"/>
<rect x="48.2002" y="203.036" width="110.559" height="91.5069" stroke="white" stroke-width="15.2993"/>
<rect x="186.093" y="241.006" width="110.559" height="91.5069" stroke="white" stroke-width="15.2993"/>
<rect x="220.445" y="274.491" width="110.559" height="91.5069" stroke="white" stroke-width="15.2993"/>
<rect x="116.894" y="-76.4055" width="110.559" height="91.5069" stroke="white" stroke-width="15.2993"/>
<rect x="151.246" y="-42.9202" width="110.559" height="91.5069" stroke="white" stroke-width="15.2993"/>
<rect x="151.494" y="82.3" width="110.559" height="91.5069" stroke="white" stroke-width="15.2993"/>
<rect x="185.845" y="115.785" width="110.559" height="91.5069" stroke="white" stroke-width="15.2993"/>
<rect x="289.891" y="-5.70254" width="110.559" height="91.5069" stroke="white" stroke-width="15.2993"/>
<rect x="324.243" y="27.7828" width="110.559" height="91.5069" stroke="white" stroke-width="15.2993"/>
<rect x="324.49" y="153.003" width="110.559" height="91.5069" stroke="white" stroke-width="15.2993"/>
<rect x="358.842" y="186.488" width="110.559" height="91.5069" stroke="white" stroke-width="15.2993"/>
<rect x="957.808" y="111.525" width="110.559" height="91.5069" stroke="white" stroke-width="15.2993"/>
<rect x="992.16" y="145.01" width="110.559" height="91.5069" stroke="white" stroke-width="15.2993"/>
<rect x="992.407" y="268.836" width="110.559" height="91.5069" stroke="white" stroke-width="15.2993"/>
<rect x="1095.45" y="22.8794" width="110.559" height="91.5069" stroke="white" stroke-width="15.2993"/>
<rect x="1129.81" y="56.3647" width="110.559" height="91.5069" stroke="white" stroke-width="15.2993"/>
<rect x="1130.05" y="181.585" width="110.559" height="91.5069" stroke="white" stroke-width="15.2993"/>
<rect x="1164.4" y="215.07" width="110.559" height="91.5069" stroke="white" stroke-width="15.2993"/>
<rect x="1268.45" y="93.5824" width="110.559" height="91.5069" stroke="white" stroke-width="15.2993"/>
<rect x="1302.8" y="127.068" width="110.559" height="91.5069" stroke="white" stroke-width="15.2993"/>
<rect x="1303.05" y="252.288" width="110.559" height="91.5069" stroke="white" stroke-width="15.2993"/>
<rect x="1337.4" y="285.773" width="110.559" height="91.5069" stroke="white" stroke-width="15.2993"/>
<rect x="1233.85" y="-64.371" width="110.559" height="91.5069" stroke="white" stroke-width="15.2993"/>
<rect x="1268.2" y="-30.8857" width="110.559" height="91.5069" stroke="white" stroke-width="15.2993"/>
<rect x="923.209" y="-47.0714" width="110.559" height="91.5069" stroke="white" stroke-width="15.2993"/>
<rect x="957.561" y="-13.5861" width="110.559" height="91.5069" stroke="white" stroke-width="15.2993"/>
<rect x="1097.46" y="-98.58" width="110.559" height="91.5069" stroke="white" stroke-width="15.2993"/>
<rect x="1442.2" y="164.176" width="110.559" height="91.5069" stroke="white" stroke-width="15.2993"/>
<rect x="1476.55" y="197.661" width="110.559" height="91.5069" stroke="white" stroke-width="15.2993"/>
<rect x="1579.84" y="75.5306" width="110.559" height="91.5069" stroke="white" stroke-width="15.2993"/>
<rect x="1614.2" y="109.016" width="110.559" height="91.5069" stroke="white" stroke-width="15.2993"/>
<rect x="1614.44" y="234.236" width="110.559" height="91.5069" stroke="white" stroke-width="15.2993"/>
<rect x="1648.8" y="267.722" width="110.559" height="91.5069" stroke="white" stroke-width="15.2993"/>
<rect x="1752.84" y="146.234" width="110.559" height="91.5069" stroke="white" stroke-width="15.2993"/>
<rect x="1787.19" y="179.719" width="110.559" height="91.5069" stroke="white" stroke-width="15.2993"/>
<rect x="1718.24" y="-11.7199" width="110.559" height="91.5069" stroke="white" stroke-width="15.2993"/>
<rect x="1752.59" y="21.7654" width="110.559" height="91.5069" stroke="white" stroke-width="15.2993"/>
<rect x="1407.6" y="5.57975" width="110.559" height="91.5069" stroke="white" stroke-width="15.2993"/>
<rect x="1441.95" y="39.065" width="110.559" height="91.5069" stroke="white" stroke-width="15.2993"/>
<rect x="1547.5" y="-79.4142" width="110.559" height="91.5069" stroke="white" stroke-width="15.2993"/>
<rect x="1581.85" y="-45.929" width="110.559" height="91.5069" stroke="white" stroke-width="15.2993"/>
</g>
</g>
<defs>
<clipPath id="clip0_3340_83">
<rect width="1920" height="286" fill="white"/>
</clipPath>
</defs>
</svg>
