<svg width="223" height="78" viewBox="0 0 223 78" fill="none" xmlns="http://www.w3.org/2000/svg">
<g clip-path="url(#clip0_2937_14855)">
<path fill-rule="evenodd" clip-rule="evenodd" d="M42.2002 2.30181C42.9183 2.33444 44.126 2.48129 44.8931 2.61182C45.6602 2.75866 46.8189 3.03604 47.4717 3.26447C48.1082 3.47658 49.1854 3.91711 49.8219 4.24344C50.4747 4.56976 51.4539 5.14083 51.9925 5.49979C52.5311 5.87506 53.3634 6.54403 53.853 6.98457C54.3263 7.44142 55.1097 8.40408 55.583 9.122C56.0563 9.83991 56.7091 10.9331 57.0192 11.5694C57.3293 12.2058 57.9984 13.7395 58.488 14.9958C58.9939 16.2522 59.7284 18.4223 60.1527 19.8091C60.5607 21.196 61.2298 23.6598 61.6378 25.2751C62.0459 26.8904 62.7313 30.0068 63.172 32.2095C63.6126 34.4122 64.2818 37.9365 64.6245 40.0413C64.9835 42.1461 65.5384 45.6704 65.8485 47.8731C66.1749 50.0758 66.7625 54.5138 67.1541 57.7444C67.5622 60.975 68.1171 65.5599 68.3782 67.942C68.6393 70.3242 68.9168 72.8206 69.0963 74.7133L68.4435 75.4475C68.0518 75.888 67.4316 76.3286 66.9093 76.5733C66.4197 76.7854 65.5221 77.0628 64.8856 77.2097C64.1185 77.3728 62.8782 77.4544 61.1319 77.4544C59.4836 77.4544 57.9168 77.3565 56.8886 77.177C55.991 77.0302 54.7017 76.7528 54.0325 76.5733C53.3634 76.3939 52.5474 76.0838 52.2373 75.9044C51.813 75.6596 51.5192 75.268 51.0622 74.3217C50.7358 73.6364 50.0993 72.6085 49.6587 72.0211C49.218 71.4337 48.353 70.4874 47.7165 69.9C47.0964 69.3126 45.9539 68.4315 45.2032 67.9257C44.4524 67.4199 43.2774 66.7183 42.6082 66.392C41.9391 66.0494 40.7151 65.5272 39.9154 65.2172C39.1157 64.9072 37.6468 64.4341 36.6513 64.1893C35.6557 63.9446 34.1379 63.6346 33.2566 63.5203C32.0489 63.3409 31.6735 63.2266 31.6735 63.0472C31.6735 62.884 32.1632 62.6393 33.0934 62.3129C33.8931 62.0519 35.2967 61.4482 36.2433 60.9913C37.1898 60.5345 38.724 59.6371 39.6706 59.0171C40.6171 58.3807 42.1839 57.1081 43.1631 56.178C44.1424 55.248 45.399 53.8938 45.9702 53.1758C46.5251 52.4579 47.4391 51.1363 47.9777 50.2389C48.5325 49.3415 49.2996 47.8404 49.6913 46.8941C50.083 45.9478 50.54 44.7403 50.7032 44.2019C50.8664 43.6635 50.9969 43.2066 50.9969 43.174C51.0132 43.1577 51.9762 43.5819 53.1349 44.1203C54.2937 44.6588 55.2729 45.083 55.3055 45.0667C55.3218 45.034 54.8649 39.5844 54.2773 32.9437C53.6898 26.303 53.1675 20.5923 52.9717 19.6133L42.6082 26.9067C36.9124 30.9042 32.2284 34.2327 32.1958 34.298C32.1795 34.3632 33.5994 35.0811 35.362 35.8806C37.1246 36.6801 38.5934 37.4144 38.626 37.5123C38.675 37.6101 38.4792 38.3444 38.1854 39.1439C37.908 39.9434 37.3694 41.1997 36.994 41.9176C36.6186 42.6356 35.9005 43.7777 35.3946 44.4467C34.905 45.1156 33.9584 46.1599 33.3219 46.7636C32.6854 47.3836 31.6246 48.2483 30.9718 48.7052C30.3353 49.162 29.2092 49.831 28.4911 50.19C27.773 50.5489 26.451 51.0874 25.5534 51.3811C24.6558 51.6911 23.1543 52.05 22.2077 52.2132C20.8531 52.4253 19.9065 52.4742 17.7196 52.3927C16.0549 52.3437 14.4555 52.1969 13.7211 52.0337C13.0519 51.8869 11.7953 51.5442 10.9466 51.2668C10.098 51.0058 8.64543 50.4184 7.71517 49.9779C6.80123 49.5373 6.00152 49.0805 5.95256 48.9663C5.9036 48.8684 6.44218 47.4815 7.16027 45.9151C7.87837 44.3488 9.28193 41.3303 10.2938 39.2255C11.2893 37.1207 13.1499 33.3353 14.4392 30.8226C15.7122 28.3099 17.3442 25.2261 18.046 23.9698C18.7478 22.7134 19.9065 20.6902 20.6246 19.4828C21.3427 18.2754 22.5668 16.3338 23.3338 15.159C24.1009 13.9842 25.3902 12.1568 26.2062 11.0799C27.0059 10.0031 28.3768 8.40408 29.2255 7.50669C30.0741 6.62561 31.2492 5.53242 31.8368 5.09188C32.4243 4.65135 33.3382 4.08028 33.8768 3.81922C34.4154 3.55816 35.5578 3.16657 36.4065 2.93814C37.2551 2.70971 38.6261 2.44865 39.4258 2.36707C40.2255 2.28549 41.4821 2.25286 42.2002 2.30181ZM188.839 22.4197V28.2936H194.062V33.5148H188.839L188.872 39.5028C188.921 45.1972 188.937 45.5398 189.247 46.0783C189.443 46.3883 189.835 46.7799 190.145 46.943C190.569 47.1715 190.945 47.2204 191.614 47.1552C192.103 47.1062 192.952 46.9267 193.491 46.7309C194.029 46.5515 194.519 46.4536 194.568 46.5188C194.617 46.6004 194.976 47.5304 195.367 48.6073C195.743 49.6842 196.085 50.6631 196.118 50.761C196.151 50.8753 195.841 51.1526 195.4 51.3647C194.976 51.5769 194.16 51.9032 193.572 52.0827C192.985 52.2785 192.071 52.5069 191.532 52.6048C190.994 52.6864 189.998 52.7679 189.329 52.7679C188.66 52.7679 187.632 52.6537 187.044 52.5069C186.456 52.3763 185.624 52.0663 185.183 51.8216C184.743 51.5769 184.09 51.0547 183.747 50.6468C183.388 50.2389 182.931 49.5373 182.719 49.0968C182.523 48.6399 182.262 47.8894 182.164 47.4162C182.05 46.8778 181.985 44.2182 181.985 33.5148H179.21V28.9462L179.814 28.7994C180.157 28.7178 180.761 28.5873 181.903 28.3752L182.344 25.4382C182.572 23.8229 182.784 22.485 182.784 22.4524C182.801 22.436 184.155 22.4197 188.839 22.4197ZM3.16177 54.5627L4.56533 55.9007C5.34871 56.6512 6.52378 57.6628 7.19292 58.1686C7.86205 58.6744 8.89024 59.376 9.47777 59.735C10.0653 60.0939 10.9793 60.6161 11.5178 60.8771C12.0564 61.1545 13.1499 61.6277 13.9659 61.954C14.7656 62.264 16.1691 62.7208 17.0668 62.933C17.9644 63.1614 19.2537 63.4224 19.9228 63.5203C20.592 63.6019 21.6202 63.7325 23.2685 63.8956L22.0445 64.3525C21.3754 64.5972 20.4451 64.9725 20.0044 65.2009C19.5475 65.4293 18.7315 65.9678 18.1602 66.3757C17.6053 66.7836 16.8383 67.5178 16.4792 67.9747C16.1039 68.4479 15.7122 69.0189 15.5979 69.2473C15.4674 69.5247 15.1573 69.7205 14.635 69.851C14.227 69.9653 13.1662 70.0631 12.2849 70.0631C11.4199 70.0631 10 69.9489 9.15137 69.8184C8.3027 69.7042 6.93179 69.3942 6.13209 69.1658C5.31607 68.9373 4.05939 68.4478 3.30866 68.1052C2.57424 67.7462 1.59501 67.1099 1.13804 66.6694C0.681067 66.2452 0.142493 65.6088 -0.0370319 65.2499C-0.298159 64.7767 -0.379761 64.3035 -0.379761 63.5367C-0.36344 62.5414 -0.249197 62.1987 1.39917 58.5113L3.16177 54.5627ZM125.353 18.357H132.371L132.289 52.2132H126.283L125.973 51.3158C125.81 50.81 125.647 50.3205 125.598 50.2063C125.543 50.0758 125.228 50.2335 124.651 50.6795C124.194 51.0547 123.345 51.5769 122.774 51.8216C122.219 52.0827 121.305 52.3927 120.734 52.5232C120.179 52.67 119.249 52.7679 118.661 52.7843C118.074 52.7843 117.16 52.7027 116.621 52.6048C116.083 52.5069 115.169 52.1969 114.581 51.9195C113.896 51.5932 113.161 51.0547 112.525 50.4184C111.986 49.88 111.334 49.0642 111.089 48.6236C110.844 48.1668 110.469 47.3183 110.256 46.7472C110.044 46.1599 109.767 45.0504 109.62 44.2998C109.457 43.4677 109.359 42.0482 109.359 40.7918C109.359 39.6171 109.457 38.0833 109.587 37.3654C109.734 36.6475 110.044 35.538 110.289 34.918C110.55 34.2816 111.121 33.2211 111.562 32.5521C112.019 31.8832 112.753 31.0021 113.227 30.5942C113.684 30.1863 114.451 29.6152 114.94 29.3215C115.414 29.0278 116.311 28.6199 116.948 28.3915C117.568 28.163 118.71 27.902 119.477 27.8041C120.244 27.7062 121.403 27.6736 122.089 27.7388C122.758 27.8041 123.77 27.9836 125.336 28.3915L125.353 18.357ZM118.009 34.8201C117.601 35.228 117.111 35.9133 116.915 36.3375C116.703 36.7617 116.458 37.4633 116.36 37.8875C116.262 38.3117 116.181 39.5028 116.181 40.5471C116.181 41.9992 116.246 42.6519 116.523 43.484C116.703 44.0551 117.078 44.8546 117.356 45.2298C117.633 45.6051 118.155 46.1435 118.547 46.4209C118.939 46.6983 119.624 46.992 120.13 47.0899C120.799 47.2204 121.322 47.2041 122.17 47.0573C122.807 46.943 123.753 46.6167 124.292 46.3393L125.271 45.8499V33.939C124.259 33.58 123.198 33.4495 122.252 33.4169C120.783 33.3679 120.424 33.4006 119.641 33.7106C119.102 33.9227 118.449 34.3795 118.009 34.8201ZM89.8069 19.6623L99.4849 19.646L100.448 21.6529C100.986 22.7461 101.868 24.8345 102.423 26.2704C102.994 27.7062 103.957 30.3821 104.593 32.2258C105.23 34.0532 106.127 36.7454 106.601 38.1812C107.058 39.617 107.841 42.1787 108.331 43.8919C108.82 45.5888 109.506 48.1668 109.865 49.6026C110.207 51.0384 110.485 52.2295 110.469 52.2458C110.436 52.2785 108.739 52.3111 102.961 52.3763L102.194 49.1947C101.77 47.4325 101.378 45.8335 101.199 45.2788H88.1422L86.4122 52.3763L84.3069 52.409C83.1482 52.4416 81.4508 52.3927 78.8722 52.2132L79.5087 49.6842C79.8678 48.281 80.6675 45.393 81.304 43.2393C81.9405 41.0855 83.1808 37.1533 84.0621 34.5101C84.9434 31.8505 86.1838 28.3752 86.8039 26.7599C87.4241 25.1445 88.3544 22.8766 88.8766 21.7344L89.8069 19.6623ZM92.3366 31.2468C91.8306 32.7316 91.0636 35.1464 90.6229 36.6312L89.8069 39.3234C97.2327 39.3886 99.4196 39.3886 99.4686 39.3723C99.5175 39.3397 99.1585 38.0017 98.6689 36.3864C98.1793 34.7711 97.4938 32.5684 97.1185 31.4916C96.7594 30.4147 96.1066 28.6362 95.6823 27.5267C95.1437 26.1235 94.8336 25.5361 94.6541 25.5361C94.4909 25.5361 94.2134 26.0419 93.8217 27.0535C93.4953 27.8694 92.8262 29.762 92.3366 31.2468ZM146.161 27.7551C146.961 27.8041 148.103 27.9509 148.691 28.0815C149.279 28.2283 150.307 28.6036 150.976 28.9299C151.841 29.3378 152.526 29.8273 153.293 30.5779C154.06 31.3447 154.534 31.9974 154.909 32.7969C155.203 33.4332 155.48 34.3469 155.546 34.8364C155.595 35.3259 155.595 36.3049 155.513 37.0065C155.448 37.6917 155.235 38.6544 155.072 39.1276C154.876 39.6334 154.403 40.3676 153.881 40.9387C153.277 41.6076 152.673 42.0482 151.873 42.4398C151.221 42.7661 150.176 43.1087 149.425 43.2393C148.544 43.4024 146.879 43.484 144.317 43.484C141.902 43.484 140.531 43.5493 140.531 43.6472C140.531 43.7451 140.678 44.0877 140.841 44.4303C141.004 44.7567 141.477 45.344 141.853 45.7356C142.293 46.1599 142.93 46.5678 143.468 46.7636C143.958 46.943 144.921 47.1715 145.59 47.2531C146.259 47.3346 147.173 47.3673 147.63 47.3183C148.071 47.253 148.854 47.1062 149.344 46.9594C149.833 46.8288 150.845 46.4699 151.58 46.1599C152.33 45.8498 152.967 45.6214 153.016 45.6541C153.065 45.6704 153.506 46.682 153.995 47.8894C154.501 49.0968 154.893 50.141 154.893 50.2226C154.893 50.2879 154.207 50.6631 153.375 51.071C152.559 51.4626 151.139 51.9848 150.241 52.2295C149.132 52.5069 147.973 52.67 146.651 52.7353C145.46 52.8006 144.138 52.7516 143.305 52.6374C142.538 52.5232 141.51 52.3274 141.02 52.1805C140.531 52.05 139.649 51.6911 139.062 51.3974C138.474 51.1037 137.593 50.5489 137.103 50.141C136.614 49.7494 135.83 48.8684 135.39 48.1994C134.9 47.4978 134.378 46.4536 134.133 45.6867C133.888 44.9688 133.611 43.7287 133.497 42.9129C133.382 42.0319 133.35 40.596 133.399 39.3234C133.448 38.1649 133.611 36.7291 133.774 36.1417C133.921 35.5543 134.296 34.5264 134.606 33.8574C134.917 33.1884 135.488 32.2258 135.879 31.7363C136.287 31.2468 136.989 30.5452 137.463 30.1699C137.936 29.7947 138.687 29.3215 139.144 29.0931C139.584 28.8646 140.514 28.5057 141.184 28.3099C141.853 28.0978 142.914 27.8857 143.55 27.8041C144.17 27.7388 145.345 27.7225 146.161 27.7551ZM141.771 34.8527C141.412 35.2443 140.955 35.9459 140.776 36.3864C140.58 36.8433 140.368 37.4307 140.302 37.6917L140.172 38.1812C146.553 38.0181 147.418 37.9365 147.875 37.7244C148.185 37.5775 148.544 37.2675 148.642 37.0391C148.756 36.827 148.854 36.4517 148.854 36.2233C148.854 35.9948 148.756 35.5706 148.642 35.2932C148.528 34.9996 148.25 34.5753 148.022 34.3632C147.81 34.1511 147.336 33.8411 146.977 33.6779C146.537 33.4821 145.949 33.3842 145.182 33.3679C144.317 33.3679 143.844 33.4658 143.224 33.7595C142.767 33.9553 142.114 34.4611 141.771 34.8527ZM168.684 27.8857C170.424 27.9292 171.621 28.038 172.274 28.212C172.813 28.3588 173.792 28.7341 174.428 29.0441C175.146 29.3868 175.946 29.9415 176.436 30.431C176.876 30.8879 177.448 31.5895 177.692 32.03C177.937 32.4542 178.313 33.27 178.525 33.8574C178.737 34.4448 179.014 35.6196 179.145 36.468C179.259 37.3165 179.373 38.8665 179.373 39.8944C179.373 40.9223 179.259 42.4398 179.129 43.2393C178.982 44.0551 178.721 45.1809 178.541 45.7683C178.345 46.3557 177.937 47.302 177.611 47.8894C177.301 48.4768 176.583 49.4231 176.044 49.9942C175.489 50.5489 174.608 51.2668 174.069 51.5769C173.531 51.8705 172.682 52.2458 172.192 52.409C171.491 52.6374 170.756 52.7027 168.765 52.7027C166.954 52.6864 165.942 52.6048 165.175 52.409C164.587 52.2621 163.951 52.099 163.379 51.9684V61.595H156.525V31.41L157.455 30.8715C157.977 30.5615 158.989 30.072 159.707 29.7457C160.425 29.4357 161.519 29.0115 162.155 28.7994C162.776 28.5873 163.918 28.2936 164.685 28.1304C165.795 27.8857 166.594 27.8367 168.684 27.8857ZM166.154 33.7106C165.746 33.8085 164.962 34.1022 164.391 34.3632L163.379 34.8364L163.461 46.6493C164.718 46.992 165.86 47.1225 166.807 47.1225C168.357 47.1551 168.602 47.1225 169.418 46.7146C169.908 46.4862 170.593 45.9804 170.919 45.6214C171.262 45.2462 171.686 44.6588 171.866 44.2998C172.046 43.9409 172.307 43.1577 172.454 42.554C172.649 41.7382 172.698 40.9387 172.633 39.4865C172.584 38.2465 172.454 37.2349 172.29 36.7128C172.127 36.2722 171.801 35.6033 171.556 35.2443C171.311 34.8853 170.789 34.3959 170.381 34.1511C169.94 33.8737 169.287 33.6453 168.684 33.58C168.145 33.4985 167.525 33.4658 167.296 33.4985C167.068 33.5148 166.562 33.6127 166.154 33.7106Z" fill="url(#paint0_linear_2937_14855)"/>
</g>
<path d="M96.3216 21.8887L108.242 57.4385H100.473L97.7052 49.03H85.9972L83.3363 57.4385H75.3004L87.647 21.8887H96.3216ZM87.8067 43.2292H95.8958L91.9045 29.2328L87.8067 43.2292ZM127.422 51.1587V35.9383C126.464 35.4771 125.187 35.2465 123.591 35.2465C119.369 35.2465 117.258 38.2799 117.258 44.3468C117.258 47.1851 117.719 49.2429 118.641 50.5201C119.564 51.7973 120.965 52.436 122.845 52.436C124.584 52.436 126.11 52.0102 127.422 51.1587ZM135.831 57.7046H128.859L128.061 55.2033C125.897 57.1901 123.395 58.1835 120.557 58.1835C117.151 58.1835 114.49 56.924 112.574 54.405C110.658 51.8506 109.701 48.4801 109.701 44.2936C109.701 42.697 109.825 41.2247 110.073 39.8765C110.321 38.4928 110.747 37.1623 111.35 35.8851C111.989 34.6079 112.787 33.5258 113.745 32.6388C114.703 31.7518 115.909 31.0422 117.364 30.5101C118.854 29.9779 120.539 29.7118 122.42 29.7118C124.407 29.7118 126.074 29.9956 127.422 30.5633V20.1325H134.873V51.5845C134.944 53.7132 135.263 55.7532 135.831 57.7046ZM153.693 29.765C156.673 29.765 159.032 30.4568 160.771 31.8405C162.545 33.2242 163.432 35.1755 163.432 37.6945C163.432 39.433 163.042 40.9586 162.261 42.2713C161.48 43.5485 160.452 44.5419 159.174 45.2515C157.933 45.9611 156.62 46.4933 155.236 46.848C153.853 47.1674 152.433 47.327 150.979 47.327C149.595 47.327 148.318 47.1674 147.147 46.848C147.183 48.622 147.928 49.9524 149.382 50.8394C150.872 51.6909 152.841 52.1167 155.289 52.1167C157.773 52.1167 160.026 51.7264 162.048 50.9459L162.793 56.3209C160.132 57.3853 156.673 57.9174 152.416 57.9174C147.91 57.9174 144.575 56.6757 142.411 54.1922C140.211 51.6732 139.111 48.4801 139.111 44.6129C139.111 42.6615 139.377 40.8166 139.909 39.0782C140.442 37.3397 141.258 35.7609 142.357 34.3418C143.493 32.9226 145.018 31.805 146.934 30.989C148.886 30.173 151.138 29.765 153.693 29.765ZM155.981 37.8009C155.981 37.1269 155.697 36.5237 155.13 35.9915C154.598 35.4593 153.959 35.1933 153.214 35.1933C151.227 35.1933 149.666 35.8496 148.531 37.1623C147.395 38.475 146.775 40.3199 146.668 42.697C147.413 42.9454 148.229 43.0696 149.116 43.0696C150.855 43.0696 152.433 42.6083 153.853 41.6859C155.272 40.728 155.981 39.433 155.981 37.8009ZM175.226 68.774H167.776V31.8937C172.778 30.4036 176.912 29.6586 180.176 29.6586C188.974 29.6586 193.374 34.2531 193.374 43.4421C193.374 47.5931 192.469 50.9991 190.66 53.66C188.637 56.6402 185.178 58.1303 180.282 58.1303C179.182 58.1303 177.497 57.9352 175.226 57.5449V68.774ZM175.226 35.9915V51.5845C176.61 51.9747 177.869 52.1699 179.005 52.1699C181.24 52.1699 182.925 51.4071 184.061 49.8815C185.231 48.3559 185.817 46.1917 185.817 43.3889C185.817 38.1025 183.706 35.4593 179.484 35.4593C177.923 35.4593 176.504 35.6367 175.226 35.9915ZM200.374 48.6575V35.2997H195.585V30.1907H200.534V23.9642L208.038 23.3256V30.1375H215.808L215.382 35.2997H207.985V49.3493C207.985 50.4137 208.144 51.1587 208.464 51.5845C208.818 52.0102 209.422 52.2231 210.273 52.2231C211.479 52.2231 212.721 52.0634 213.998 51.7441L214.797 57.0127C213.023 57.7578 211.018 58.1303 208.783 58.1303C205.448 58.1303 203.16 57.3675 201.918 55.8419C201.208 54.813 200.765 53.7132 200.587 52.5424C200.445 51.4426 200.374 50.1476 200.374 48.6575Z" fill="#808080"/>
<defs>
<linearGradient id="paint0_linear_2937_14855" x1="-13.8059" y1="94.4654" x2="71.1303" y2="8.05622" gradientUnits="userSpaceOnUse">
<stop offset="0.558729" stop-color="#F14810"/>
<stop offset="0.88593" stop-color="#FF551C" stop-opacity="0.67"/>
</linearGradient>
<clipPath id="clip0_2937_14855">
<rect width="75.935" height="77.4537" fill="white" transform="translate(0 0.000488281)"/>
</clipPath>
</defs>
</svg>
