<svg width="149" height="43" viewBox="0 0 189 66" fill="none" xmlns="http://www.w3.org/2000/svg">
<g clip-path="url(#clip0_2885_6214)">
<path fill-rule="evenodd" clip-rule="evenodd" d="M35.7661 1.95089C36.3747 1.97855 37.3983 2.103 38.0484 2.21363C38.6985 2.33809 39.6806 2.57317 40.2339 2.76677C40.7734 2.94654 41.6863 3.31992 42.2257 3.59649C42.779 3.87306 43.6089 4.35706 44.0654 4.66129C44.5219 4.97934 45.2273 5.54631 45.6423 5.91969C46.0434 6.30689 46.7073 7.12277 47.1085 7.73123C47.5096 8.33968 48.0629 9.2662 48.3257 9.80551C48.5885 10.3448 49.1556 11.6447 49.5706 12.7095C49.9994 13.7743 50.6218 15.6135 50.9814 16.7889C51.3272 17.9644 51.8944 20.0525 52.2402 21.4215C52.586 22.7905 53.1669 25.4318 53.5404 27.2986C53.9139 29.1655 54.481 32.1525 54.7714 33.9364C55.0758 35.7202 55.546 38.7072 55.8089 40.5741C56.0855 42.4409 56.5834 46.2023 56.9154 48.9403C57.2612 51.6784 57.7315 55.5642 57.9528 57.5832C58.1741 59.6022 58.4093 61.7179 58.5614 63.322L58.0082 63.9443C57.6762 64.3177 57.1506 64.6911 56.7079 64.8985C56.293 65.0783 55.5322 65.3134 54.9928 65.4378C54.3426 65.5761 53.2914 65.6453 51.8114 65.6453C50.4143 65.6453 49.0864 65.5623 48.215 65.4102C47.4543 65.2857 46.3615 65.0506 45.7944 64.8985C45.2273 64.7464 44.5357 64.4837 44.2729 64.3315C43.9132 64.1241 43.6643 63.7922 43.277 62.9902C43.0003 62.4094 42.4609 61.5382 42.0874 61.0403C41.7139 60.5425 40.9808 59.7404 40.4414 59.2426C39.9158 58.7448 38.9475 57.9981 38.3112 57.5694C37.675 57.1407 36.679 56.5461 36.1119 56.2695C35.5448 55.9791 34.5074 55.5366 33.8296 55.2738C33.1519 55.0111 31.907 54.6101 31.0632 54.4026C30.2195 54.1952 28.9331 53.9325 28.1861 53.8357C27.1626 53.6835 26.8444 53.5867 26.8444 53.4346C26.8444 53.2963 27.2594 53.0889 28.0478 52.8123C28.7256 52.5911 29.9151 52.0794 30.7174 51.6922C31.5197 51.305 32.8199 50.5445 33.6222 50.019C34.4244 49.4797 35.7523 48.401 36.5822 47.6128C37.4121 46.8246 38.4772 45.6768 38.9613 45.0683C39.4316 44.4599 40.2062 43.3398 40.6627 42.5792C41.133 41.8186 41.7831 40.5464 42.1151 39.7444C42.447 38.9423 42.8343 37.919 42.9727 37.4626C43.111 37.0063 43.2216 36.6191 43.2216 36.5914C43.2355 36.5776 44.0516 36.9372 45.0336 37.3935C46.0157 37.8498 46.8456 38.2094 46.8733 38.1956C46.8871 38.1679 46.4998 33.5492 46.0019 27.9209C45.5039 22.2927 45.0613 17.4527 44.8953 16.623L36.1119 22.8044C31.2845 26.1924 27.3147 29.0134 27.287 29.0687C27.2732 29.124 28.4766 29.7325 29.9705 30.4101C31.4643 31.0877 32.7092 31.71 32.7369 31.7929C32.7784 31.8759 32.6124 32.4982 32.3634 33.1758C32.1283 33.8534 31.6718 34.9182 31.3537 35.5266C31.0355 36.1351 30.4269 37.1031 29.9981 37.6701C29.5832 38.237 28.7809 39.1221 28.2415 39.6337C27.702 40.1592 26.8029 40.8921 26.2496 41.2793C25.7102 41.6665 24.7558 42.2335 24.1472 42.5377C23.5385 42.8419 22.4181 43.2983 21.6574 43.5472C20.8966 43.8099 19.6241 44.1142 18.8218 44.2525C17.6737 44.4322 16.8715 44.4737 15.018 44.4046C13.6071 44.3631 12.2515 44.2386 11.6291 44.1003C11.062 43.9759 9.99691 43.6855 9.27764 43.4504C8.55837 43.2291 7.32732 42.7313 6.53889 42.3579C5.76429 41.9846 5.08652 41.5974 5.04502 41.5006C5.00352 41.4176 5.45998 40.2422 6.06859 38.9146C6.67721 37.5871 7.86677 35.0288 8.72436 33.2449C9.56812 31.461 11.145 28.2528 12.2377 26.1232C13.3166 23.9936 14.6998 21.38 15.2946 20.3152C15.8894 19.2504 16.8715 17.5357 17.4801 16.5124C18.0887 15.4891 19.1261 13.8435 19.7762 12.8478C20.4263 11.8521 21.5191 10.3033 22.2107 9.39066C22.8884 8.47797 24.0503 7.12277 24.7696 6.3622C25.4889 5.61546 26.4848 4.68894 26.9827 4.31557C27.4807 3.9422 28.2553 3.4582 28.7118 3.23694C29.1682 3.01569 30.1365 2.6838 30.8557 2.4902C31.575 2.2966 32.7369 2.07535 33.4147 2.0062C34.0924 1.93706 35.1575 1.9094 35.7661 1.95089ZM160.048 19.0015V23.9798H164.474V28.4049H160.048L160.075 33.48C160.117 38.3062 160.131 38.5966 160.393 39.0529C160.559 39.3157 160.891 39.6476 161.154 39.7858C161.514 39.9794 161.832 40.0209 162.399 39.9656C162.814 39.9241 163.533 39.772 163.99 39.6061C164.446 39.4539 164.861 39.371 164.903 39.4263C164.944 39.4954 165.248 40.2837 165.58 41.1964C165.899 42.109 166.189 42.9387 166.217 43.0217C166.244 43.1185 165.982 43.3536 165.608 43.5334C165.248 43.7131 164.557 43.9897 164.059 44.1418C163.561 44.3078 162.786 44.5014 162.33 44.5843C161.873 44.6535 161.03 44.7226 160.463 44.7226C159.895 44.7226 159.024 44.6258 158.526 44.5014C158.028 44.3907 157.323 44.128 156.949 43.9206C156.576 43.7132 156.022 43.2706 155.732 42.9249C155.428 42.5792 155.04 41.9846 154.861 41.6112C154.695 41.224 154.473 40.5879 154.39 40.1869C154.293 39.7305 154.238 37.4765 154.238 28.4049H151.887V24.5329L152.398 24.4085C152.689 24.3393 153.201 24.2287 154.169 24.0489L154.542 21.5598C154.736 20.1908 154.916 19.0568 154.916 19.0292C154.93 19.0153 156.078 19.0015 160.048 19.0015ZM2.67973 46.2438L3.86929 47.3777C4.53323 48.0138 5.52914 48.8712 6.09626 49.2999C6.66338 49.7286 7.5348 50.3232 8.03275 50.6274C8.53071 50.9317 9.30531 51.3742 9.76177 51.5954C10.2182 51.8305 11.145 52.2315 11.8366 52.5081C12.5144 52.7709 13.7039 53.1581 14.4647 53.3378C15.2254 53.5314 16.3182 53.7527 16.8853 53.8357C17.4524 53.9048 18.3238 54.0154 19.7209 54.1537L18.6835 54.5409C18.1164 54.7483 17.3279 55.0664 16.9545 55.26C16.5672 55.4536 15.8756 55.9099 15.3914 56.2557C14.9211 56.6014 14.271 57.2237 13.9667 57.6109C13.6486 58.0119 13.3166 58.4959 13.2198 58.6895C13.1091 58.9246 12.8463 59.0905 12.4037 59.2011C12.0579 59.2979 11.1588 59.3809 10.4119 59.3809C9.67877 59.3809 8.47538 59.2841 7.75611 59.1735C7.03684 59.0767 5.87495 58.8139 5.19717 58.6203C4.50557 58.4267 3.44049 58.0119 2.80422 57.7215C2.18177 57.4173 1.35185 56.8779 0.964548 56.5046C0.577249 56.145 0.120789 55.6057 -0.0313641 55.3015C-0.252678 54.9005 -0.321838 54.4994 -0.321838 53.8495C-0.308006 53.0059 -0.211182 52.7155 1.18586 49.5903L2.67973 46.2438ZM106.241 15.5582H112.189L112.119 44.2525H107.029L106.766 43.4919C106.628 43.0632 106.49 42.6483 106.448 42.5516C106.402 42.4409 106.135 42.5746 105.646 42.9526C105.259 43.2706 104.539 43.7132 104.055 43.9206C103.585 44.1418 102.81 44.4046 102.326 44.5152C101.856 44.6397 101.068 44.7226 100.57 44.7365C100.072 44.7365 99.297 44.6673 98.8405 44.5843C98.3841 44.5014 97.6095 44.2386 97.1115 44.0035C96.5306 43.727 95.9081 43.2706 95.3687 42.7313C94.9122 42.275 94.3589 41.5835 94.1515 41.2102C93.944 40.823 93.6258 40.1039 93.446 39.6199C93.2662 39.1221 93.0311 38.1817 92.9066 37.5456C92.7682 36.8404 92.6852 35.6373 92.6852 34.5725C92.6852 33.5768 92.7682 32.2769 92.8789 31.6685C93.0034 31.06 93.2662 30.1197 93.4737 29.5942C93.695 29.0549 94.1791 28.156 94.5526 27.589C94.9399 27.0221 95.5623 26.2753 95.9635 25.9296C96.3508 25.5839 97.0009 25.0999 97.4158 24.851C97.817 24.6021 98.5777 24.2564 99.1172 24.0628C99.6428 23.8692 100.611 23.6479 101.261 23.5649C101.911 23.482 102.893 23.4543 103.474 23.5096C104.041 23.5649 104.899 23.717 106.227 24.0628L106.241 15.5582ZM100.016 29.5112C99.6705 29.8569 99.2555 30.4377 99.0895 30.7973C98.9097 31.1568 98.7022 31.7514 98.6192 32.111C98.5362 32.4705 98.4671 33.48 98.4671 34.365C98.4671 35.5958 98.5224 36.1489 98.7575 36.8542C98.9097 37.3382 99.2278 38.0158 99.463 38.3338C99.6981 38.6519 100.141 39.1082 100.473 39.3433C100.805 39.5784 101.386 39.8273 101.814 39.9103C102.382 40.0209 102.824 40.0071 103.543 39.8826C104.083 39.7858 104.885 39.5093 105.342 39.2742L106.172 38.8593V28.7645C105.314 28.4602 104.415 28.3496 103.613 28.322C102.368 28.2805 102.063 28.3081 101.399 28.5709C100.943 28.7506 100.39 29.1378 100.016 29.5112ZM76.1144 16.6645L84.3168 16.6507L85.1329 18.3516C85.5894 19.2781 86.3363 21.0481 86.8066 22.265C87.2907 23.482 88.1068 25.7498 88.6463 27.3125C89.1857 28.8613 89.9465 31.143 90.3476 32.3599C90.7349 33.5768 91.3989 35.7479 91.8138 37.1999C92.2288 38.6381 92.8097 40.823 93.114 42.0399C93.4045 43.2568 93.6397 44.2663 93.6258 44.2801C93.5982 44.3078 92.1596 44.3354 87.2631 44.3907L86.613 41.6942C86.2533 40.2007 85.9213 38.8455 85.7692 38.3753H74.7035L73.2373 44.3907L71.453 44.4184C70.4709 44.4461 69.0323 44.4046 66.8469 44.2525L67.3863 42.109C67.6906 40.9198 68.3684 38.4721 68.9079 36.6468C69.4473 34.8214 70.4986 31.4887 71.2455 29.2485C71.9924 26.9944 73.0437 24.0489 73.5693 22.6799C74.0949 21.3109 74.8833 19.3887 75.326 18.4207L76.1144 16.6645ZM78.2584 26.4828C77.8296 27.7412 77.1795 29.7878 76.806 31.0462L76.1144 33.3279C82.408 33.3832 84.2615 33.3832 84.303 33.3694C84.3445 33.3417 84.0402 32.2078 83.6252 30.8388C83.2103 29.4697 82.6293 27.6029 82.3112 26.6902C82.0069 25.7775 81.4536 24.2702 81.0939 23.3298C80.6375 22.1406 80.3747 21.6428 80.2225 21.6428C80.0842 21.6428 79.8491 22.0714 79.5171 22.9288C79.2404 23.6202 78.6733 25.2244 78.2584 26.4828ZM123.877 23.5234C124.554 23.5649 125.523 23.6894 126.021 23.8C126.519 23.9245 127.39 24.2425 127.957 24.5191C128.69 24.8648 129.271 25.2797 129.921 25.9158C130.571 26.5657 130.973 27.1189 131.291 27.7965C131.54 28.3358 131.775 29.1102 131.83 29.525C131.872 29.9399 131.872 30.7696 131.802 31.3642C131.747 31.945 131.567 32.7609 131.429 33.162C131.263 33.5906 130.862 34.2129 130.419 34.6969C129.907 35.2639 129.396 35.6373 128.718 35.9692C128.165 36.2457 127.279 36.5361 126.643 36.6468C125.896 36.785 124.485 36.8542 122.314 36.8542C120.266 36.8542 119.105 36.9095 119.105 36.9925C119.105 37.0754 119.229 37.3658 119.367 37.6562C119.506 37.9328 119.907 38.4306 120.225 38.7625C120.598 39.1221 121.138 39.4678 121.594 39.6337C122.009 39.7858 122.825 39.9794 123.393 40.0486C123.96 40.1177 124.734 40.1454 125.122 40.1039C125.495 40.0486 126.159 39.9241 126.574 39.7997C126.989 39.689 127.846 39.3848 128.469 39.1221C129.105 38.8593 129.645 38.6657 129.686 38.6934C129.728 38.7072 130.101 39.5646 130.516 40.5879C130.945 41.6112 131.277 42.4962 131.277 42.5654C131.277 42.6207 130.696 42.9387 129.99 43.2845C129.299 43.6163 128.095 44.0589 127.335 44.2663C126.394 44.5014 125.412 44.6397 124.292 44.695C123.282 44.7503 122.161 44.7088 121.456 44.612C120.806 44.5152 119.934 44.3493 119.52 44.2248C119.105 44.1142 118.358 43.8099 117.86 43.561C117.362 43.3121 116.615 42.8419 116.2 42.4962C115.785 42.1643 115.121 41.4176 114.747 40.8506C114.332 40.256 113.89 39.371 113.682 38.721C113.475 38.1126 113.24 37.0616 113.143 36.3702C113.046 35.6234 113.018 34.4065 113.06 33.3279C113.101 32.3461 113.24 31.1292 113.378 30.6313C113.503 30.1335 113.821 29.2623 114.084 28.6953C114.346 28.1284 114.83 27.3125 115.162 26.8976C115.508 26.4828 116.103 25.8881 116.504 25.5701C116.905 25.252 117.542 24.851 117.929 24.6574C118.302 24.4638 119.091 24.1596 119.658 23.9936C120.225 23.8138 121.124 23.6341 121.664 23.5649C122.189 23.5096 123.185 23.4958 123.877 23.5234ZM120.156 29.5389C119.852 29.8708 119.464 30.4654 119.312 30.8388C119.146 31.226 118.966 31.7238 118.911 31.945L118.8 32.3599C124.209 32.2216 124.942 32.1525 125.329 31.9727C125.592 31.8482 125.896 31.5855 125.979 31.3919C126.076 31.2121 126.159 30.8941 126.159 30.7005C126.159 30.5069 126.076 30.1473 125.979 29.9122C125.882 29.6633 125.647 29.3038 125.454 29.124C125.274 28.9442 124.873 28.6815 124.568 28.5432C124.195 28.3773 123.697 28.2943 123.047 28.2805C122.314 28.2805 121.912 28.3634 121.387 28.6124C121 28.7783 120.446 29.207 120.156 29.5389ZM142.965 23.6341C144.44 23.6709 145.455 23.7631 146.008 23.9106C146.464 24.0351 147.294 24.3532 147.834 24.6159C148.442 24.9063 149.12 25.3765 149.535 25.7913C149.909 26.1785 150.393 26.7732 150.6 27.1465C150.808 27.5061 151.126 28.1975 151.306 28.6953C151.486 29.1932 151.721 30.1888 151.831 30.9079C151.928 31.627 152.025 32.9407 152.025 33.8119C152.025 34.6831 151.928 35.9692 151.818 36.6468C151.693 37.3382 151.472 38.2924 151.32 38.7902C151.154 39.288 150.808 40.0901 150.531 40.5879C150.268 41.0857 149.66 41.8878 149.203 42.3718C148.733 42.8419 147.986 43.4504 147.53 43.7132C147.073 43.9621 146.354 44.2801 145.939 44.4184C145.344 44.612 144.722 44.6673 143.034 44.6673C141.499 44.6535 140.641 44.5844 139.991 44.4184C139.493 44.2939 138.954 44.1557 138.47 44.045V52.2039H132.66V26.621L133.448 26.1647C133.891 25.902 134.749 25.4871 135.357 25.2105C135.966 24.9478 136.893 24.5882 137.432 24.4085C137.958 24.2287 138.926 23.9798 139.576 23.8415C140.517 23.6341 141.194 23.5926 142.965 23.6341ZM140.821 28.5709C140.475 28.6538 139.811 28.9028 139.327 29.124L138.47 29.525L138.539 39.5369C139.604 39.8273 140.572 39.9379 141.374 39.9379C142.688 39.9656 142.896 39.938 143.587 39.5922C144.002 39.3986 144.583 38.97 144.86 38.6657C145.15 38.3477 145.51 37.8498 145.662 37.5456C145.814 37.2414 146.036 36.5776 146.16 36.066C146.326 35.3745 146.368 34.6969 146.312 33.4662C146.271 32.4152 146.16 31.5578 146.022 31.1153C145.884 30.742 145.607 30.175 145.399 29.8708C145.192 29.5665 144.749 29.1517 144.404 28.9442C144.03 28.7092 143.477 28.5156 142.965 28.4602C142.508 28.3911 141.983 28.3634 141.789 28.3911C141.596 28.4049 141.167 28.4879 140.821 28.5709Z" fill="url(#paint0_linear_2885_6214)"/>
</g>
<path d="M81.6358 17.8697L91.7391 47.9993H85.1539L82.8085 40.8729H72.8855L70.6303 47.9993H63.8196L74.2838 17.8697H81.6358ZM74.4191 35.9565H81.2749L77.8921 24.0941L74.4191 35.9565ZM107.995 42.677V29.7772C107.183 29.3863 106.1 29.1909 104.747 29.1909C101.169 29.1909 99.3797 31.7618 99.3797 36.9037C99.3797 39.3092 99.7706 41.0533 100.552 42.1358C101.334 43.2183 102.522 43.7595 104.116 43.7595C105.589 43.7595 106.882 43.3987 107.995 42.677ZM115.121 48.2248H109.212L108.536 46.105C106.702 47.7888 104.582 48.6308 102.176 48.6308C99.2895 48.6308 97.0343 47.5633 95.4105 45.4284C93.7868 43.2634 92.9749 40.4068 92.9749 36.8586C92.9749 35.5055 93.0801 34.2576 93.2906 33.1149C93.5011 31.9422 93.8619 30.8146 94.3731 29.7321C94.9144 28.6496 95.5909 27.7325 96.4028 26.9808C97.2147 26.229 98.2371 25.6276 99.4699 25.1766C100.733 24.7255 102.161 24.5 103.755 24.5C105.439 24.5 106.852 24.7406 107.995 25.2217V16.3813H114.309V43.0379C114.369 44.842 114.64 46.571 115.121 48.2248ZM130.26 24.5451C132.786 24.5451 134.785 25.1315 136.259 26.3042C137.762 27.4769 138.514 29.1307 138.514 31.2657C138.514 32.7391 138.183 34.032 137.522 35.1446C136.86 36.2271 135.988 37.0691 134.906 37.6705C133.853 38.2718 132.741 38.7229 131.568 39.0236C130.395 39.2942 129.192 39.4295 127.96 39.4295C126.787 39.4295 125.704 39.2942 124.712 39.0236C124.742 40.5271 125.374 41.6547 126.606 42.4064C127.869 43.1281 129.538 43.4889 131.613 43.4889C133.718 43.4889 135.627 43.1581 137.341 42.4966L137.973 47.0521C135.717 47.9542 132.786 48.4053 129.177 48.4053C125.359 48.4053 122.532 47.3528 120.698 45.248C118.833 43.113 117.901 40.4068 117.901 37.1292C117.901 35.4754 118.127 33.9118 118.578 32.4384C119.029 30.965 119.721 29.6269 120.653 28.4241C121.615 27.2213 122.908 26.2741 124.532 25.5825C126.185 24.8909 128.095 24.5451 130.26 24.5451ZM132.199 31.3559C132.199 30.7845 131.959 30.2734 131.478 29.8223C131.027 29.3713 130.485 29.1458 129.854 29.1458C128.17 29.1458 126.847 29.702 125.885 30.8146C124.923 31.9272 124.396 33.4908 124.306 35.5055C124.938 35.7159 125.629 35.8212 126.381 35.8212C127.854 35.8212 129.192 35.4303 130.395 34.6485C131.598 33.8366 132.199 32.7391 132.199 31.3559ZM148.51 57.6065H142.196V26.3493C146.435 25.0864 149.938 24.4549 152.705 24.4549C160.162 24.4549 163.891 28.3489 163.891 36.1369C163.891 39.655 163.124 42.5417 161.59 44.7969C159.876 47.3228 156.945 48.5857 152.795 48.5857C151.863 48.5857 150.435 48.4203 148.51 48.0895V57.6065ZM148.51 29.8223V43.0379C149.683 43.3686 150.75 43.534 151.713 43.534C153.607 43.534 155.035 42.8875 155.997 41.5945C156.99 40.3015 157.486 38.4673 157.486 36.0918C157.486 31.6115 155.697 29.3713 152.119 29.3713C150.795 29.3713 149.593 29.5216 148.51 29.8223ZM169.824 40.5571V29.236H165.765V24.906H169.959V19.6288L176.319 19.0875V24.8609H182.904L182.543 29.236H176.274V41.1435C176.274 42.0456 176.409 42.677 176.68 43.0379C176.981 43.3987 177.492 43.5791 178.213 43.5791C179.236 43.5791 180.288 43.4438 181.371 43.1732L182.047 47.6385C180.544 48.27 178.845 48.5857 176.951 48.5857C174.124 48.5857 172.185 47.9392 171.132 46.6462C170.531 45.7742 170.155 44.842 170.004 43.8497C169.884 42.9176 169.824 41.82 169.824 40.5571Z" fill="#626262"/>
<defs>
<linearGradient id="paint0_linear_2885_6214" x1="-11.701" y1="80.0626" x2="60.2854" y2="6.82795" gradientUnits="userSpaceOnUse">
<stop offset="0.558729" stop-color="#F14810"/>
<stop offset="0.88593" stop-color="#FF551C" stop-opacity="0.67"/>
</linearGradient>
<clipPath id="clip0_2885_6214">
<rect width="64.3574" height="65.6446" fill="white" transform="translate(0 0.000366211)"/>
</clipPath>
</defs>
</svg>
