<svg width="165" height="53" viewBox="0 0 237 82" fill="none" xmlns="http://www.w3.org/2000/svg">
<g clip-path="url(#clip0_3565_181)">
<path fill-rule="evenodd" clip-rule="evenodd" d="M44.6775 2.43695C45.4377 2.47149 46.7163 2.62696 47.5284 2.76515C48.3405 2.92062 49.5673 3.21427 50.2584 3.45611C50.9322 3.68067 52.0726 4.14707 52.7465 4.49255C53.4376 4.83803 54.4743 5.44262 55.0445 5.82264C55.6147 6.21994 56.4959 6.92818 57.0142 7.39457C57.5153 7.87824 58.3447 8.89741 58.8457 9.65746C59.3468 10.4175 60.038 11.5749 60.3663 12.2486C60.6945 12.9222 61.403 14.546 61.9213 15.8761C62.4569 17.2062 63.2345 19.5036 63.6837 20.9719C64.1157 22.4402 64.8241 25.0486 65.256 26.7587C65.688 28.4688 66.4137 31.7681 66.8802 34.1001C67.3467 36.4321 68.0551 40.1633 68.418 42.3916C68.7981 44.62 69.3856 48.3511 69.7139 50.6831C70.0594 53.0151 70.6814 57.7136 71.0961 61.1339C71.5281 64.5541 72.1155 69.4081 72.392 71.9301C72.6685 74.4521 72.9622 77.095 73.1523 79.0988L72.4611 79.8761C72.0464 80.3425 71.3899 80.8089 70.8369 81.068C70.3186 81.2926 69.3683 81.5862 68.6944 81.7417C67.8823 81.9144 66.5692 82.0008 64.7204 82.0008C62.9753 82.0008 61.3166 81.8972 60.228 81.7072C59.2777 81.5517 57.9127 81.258 57.2043 81.068C56.4959 80.878 55.632 80.5498 55.3037 80.3598C54.8544 80.1007 54.5434 79.6861 54.0596 78.6842C53.7141 77.9587 53.0402 76.8704 52.5737 76.2486C52.1072 75.6267 51.1914 74.6248 50.5176 74.003C49.861 73.3811 48.6515 72.4483 47.8567 71.9128C47.0619 71.3773 45.8178 70.6346 45.1094 70.2891C44.401 69.9263 43.1051 69.3736 42.2585 69.0453C41.4119 68.7171 39.8568 68.2162 38.8028 67.9571C37.7488 67.698 36.1419 67.3698 35.2089 67.2489C33.9303 67.0588 33.5329 66.9379 33.5329 66.7479C33.5329 66.5752 34.0513 66.3161 35.0361 65.9706C35.8828 65.6942 37.3687 65.0551 38.3709 64.5714C39.373 64.0877 40.9972 63.1377 41.9993 62.4812C43.0015 61.8076 44.6602 60.4602 45.6969 59.4756C46.7336 58.4909 48.064 57.0572 48.6688 56.2972C49.2562 55.5371 50.2238 54.1379 50.794 53.1878C51.3815 52.2378 52.1936 50.6486 52.6082 49.6467C53.0229 48.6448 53.5067 47.3665 53.6795 46.7965C53.8523 46.2264 53.9905 45.7428 53.9905 45.7082C54.0078 45.6909 55.0272 46.1401 56.254 46.7101C57.4808 47.2802 58.5175 47.7293 58.552 47.712C58.5693 47.6775 58.0855 41.9079 57.4635 34.8774C56.8415 27.8469 56.2885 21.8011 56.0812 20.7646L45.1094 28.4861C39.0793 32.7182 34.1204 36.2421 34.0858 36.3112C34.0685 36.3803 35.5718 37.1403 37.4378 37.9868C39.3039 38.8332 40.8589 39.6105 40.8935 39.7142C40.9453 39.8178 40.738 40.5951 40.427 41.4416C40.1333 42.288 39.5631 43.6181 39.1657 44.3781C38.7683 45.1382 38.008 46.3474 37.4724 47.0556C36.954 47.7638 35.9519 48.8694 35.278 49.5085C34.6042 50.1649 33.4811 51.0804 32.7899 51.5641C32.1161 52.0478 30.9239 52.756 30.1636 53.136C29.4034 53.5161 28.0038 54.0861 27.0535 54.397C26.1032 54.7252 24.5136 55.1053 23.5114 55.278C22.0773 55.5026 21.0752 55.5544 18.7599 55.468C16.9975 55.4162 15.3042 55.2607 14.5267 55.088C13.8183 54.9325 12.4878 54.5698 11.5893 54.2761C10.6909 53.9997 9.1531 53.3779 8.16823 52.9115C7.20064 52.4451 6.354 51.9614 6.30216 51.8405C6.25033 51.7368 6.82051 50.2685 7.58076 48.6102C8.34101 46.9519 9.82695 43.7563 10.8982 41.5279C11.9522 39.2996 13.9219 35.292 15.2869 32.6318C16.6346 29.9716 18.3625 26.7069 19.1054 25.3768C19.8484 24.0467 21.0752 21.9047 21.8354 20.6264C22.5957 19.3482 23.8916 17.2926 24.7036 16.0488C25.5157 14.8051 26.8807 12.8704 27.7446 11.7303C28.5913 10.5903 30.0427 8.89741 30.9411 7.94734C31.8396 7.01455 33.0837 5.85719 33.7057 5.39079C34.3277 4.9244 35.2953 4.31981 35.8655 4.04342C36.4357 3.76704 37.6452 3.35247 38.5436 3.11063C39.4421 2.8688 40.8935 2.59241 41.7401 2.50604C42.5868 2.41967 43.9172 2.38512 44.6775 2.43695V2.43695ZM199.924 23.7357V29.9544H205.453V35.482H199.924L199.958 41.8216C200.01 47.8502 200.027 48.2129 200.356 48.783C200.563 49.1112 200.978 49.5258 201.306 49.6985C201.755 49.9403 202.153 49.9922 202.861 49.9231C203.379 49.8712 204.278 49.6812 204.848 49.4739C205.418 49.2839 205.937 49.1803 205.989 49.2494C206.04 49.3358 206.421 50.3204 206.835 51.4604C207.233 52.6005 207.595 53.637 207.63 53.7406C207.665 53.8615 207.336 54.1552 206.87 54.3797C206.42 54.6043 205.557 54.9498 204.935 55.1398C204.313 55.3471 203.345 55.5889 202.775 55.6926C202.205 55.7789 201.151 55.8653 200.442 55.8653C199.734 55.8653 198.645 55.7444 198.023 55.5889C197.401 55.4507 196.52 55.1225 196.053 54.8634C195.587 54.6043 194.896 54.0515 194.533 53.6197C194.153 53.1878 193.669 52.4451 193.444 51.9787C193.237 51.495 192.961 50.7004 192.857 50.1995C192.736 49.6294 192.667 46.8138 192.667 35.482H189.73V30.6453L190.369 30.4899C190.732 30.4035 191.371 30.2653 192.58 30.0407L193.047 26.9314C193.289 25.2213 193.514 23.8048 193.514 23.7703C193.531 23.753 194.965 23.7357 199.924 23.7357V23.7357ZM3.34756 57.7654L4.8335 59.1819C5.66286 59.9765 6.9069 61.0475 7.61532 61.583C8.32373 62.1185 9.41227 62.8613 10.0343 63.2413C10.6563 63.6213 11.6239 64.1741 12.1941 64.4505C12.7643 64.7441 13.9219 65.2451 14.7859 65.5906C15.6325 65.9188 17.1184 66.4024 18.0687 66.627C19.0191 66.8688 20.384 67.1452 21.0925 67.2489C21.8009 67.3352 22.8894 67.4734 24.6345 67.6462L23.3387 68.1298C22.6302 68.3889 21.6454 68.7862 21.1789 69.0281C20.6951 69.2699 19.8311 69.8399 19.2264 70.2718C18.6389 70.7036 17.8268 71.481 17.4467 71.9646C17.0493 72.4656 16.6346 73.0702 16.5137 73.312C16.3755 73.6057 16.0472 73.813 15.4943 73.9512C15.0623 74.0721 13.9392 74.1757 13.0062 74.1757C12.0904 74.1757 10.5872 74.0548 9.68873 73.9166C8.79025 73.7957 7.33886 73.4675 6.49222 73.2256C5.6283 72.9838 4.29787 72.4656 3.50306 72.1028C2.72553 71.7228 1.68883 71.0491 1.20504 70.5827C0.72124 70.1336 0.151053 69.4599 -0.0390093 69.0799C-0.315464 68.5789 -0.401855 68.078 -0.401855 67.2661C-0.384577 66.2124 -0.263628 65.8497 1.48149 61.9457L3.34756 57.7654ZM132.711 19.4345H140.141L140.054 55.278H133.696L133.367 54.3279C133.195 53.7924 133.022 53.2742 132.97 53.1533C132.912 53.0151 132.578 53.1821 131.968 53.6542C131.484 54.0515 130.586 54.6043 129.981 54.8634C129.393 55.1398 128.426 55.468 127.821 55.6062C127.234 55.7617 126.249 55.8653 125.627 55.8826C125.005 55.8826 124.037 55.7962 123.467 55.6926C122.897 55.5889 121.929 55.2607 121.307 54.9671C120.581 54.6216 119.804 54.0515 119.13 53.3779C118.56 52.8078 117.869 51.9441 117.61 51.4777C117.35 50.9941 116.953 50.0958 116.728 49.4912C116.504 48.8694 116.21 47.6947 116.055 46.9001C115.882 46.0192 115.778 44.5163 115.778 43.1862C115.778 41.9425 115.882 40.3187 116.02 39.5587C116.175 38.7986 116.504 37.624 116.763 36.9676C117.039 36.2939 117.644 35.1711 118.111 34.4629C118.594 33.7546 119.372 32.8218 119.873 32.39C120.357 31.9581 121.169 31.3536 121.687 31.0426C122.188 30.7317 123.139 30.2998 123.813 30.058C124.469 29.8162 125.679 29.5398 126.491 29.4361C127.303 29.3325 128.53 29.298 129.255 29.3671C129.964 29.4361 131.035 29.6262 132.694 30.058L132.711 19.4345ZM124.936 36.864C124.504 37.2958 123.985 38.0213 123.778 38.4704C123.553 38.9196 123.294 39.6623 123.19 40.1115C123.087 40.5606 123 41.8216 123 42.9271C123 44.4645 123.07 45.1555 123.363 46.0364C123.553 46.641 123.951 47.4874 124.244 47.8847C124.538 48.282 125.091 48.8521 125.506 49.1457C125.92 49.4394 126.646 49.7503 127.182 49.854C127.89 49.9922 128.443 49.9749 129.342 49.8194C130.015 49.6985 131.018 49.353 131.588 49.0594L132.624 48.5412V35.9312C131.553 35.5511 130.43 35.4129 129.428 35.3784C127.873 35.3266 127.493 35.3611 126.663 35.6893C126.093 35.9139 125.402 36.3976 124.936 36.864V36.864ZM95.0785 20.8164L105.325 20.7992L106.344 22.9239C106.914 24.0812 107.847 26.2923 108.435 27.8124C109.039 29.3325 110.059 32.1654 110.733 34.1174C111.407 36.0521 112.357 38.9023 112.858 40.4224C113.342 41.9425 114.171 44.6545 114.69 46.4683C115.208 48.2648 115.934 50.9941 116.314 52.5142C116.677 54.0343 116.97 55.2953 116.953 55.3125C116.918 55.3471 115.121 55.3816 109.005 55.4507L108.193 52.0823C107.744 50.2167 107.329 48.5239 107.139 47.9366H93.3161L91.4846 55.4507L89.2557 55.4853C88.029 55.5198 86.232 55.468 83.502 55.278L84.1759 52.6005C84.556 51.115 85.4026 48.0575 86.0765 45.7773C86.7504 43.4972 88.0635 39.3341 88.9965 36.5357C89.9296 33.7201 91.2427 30.0407 91.8993 28.3306C92.5559 26.6205 93.5408 24.2194 94.0937 23.0102L95.0785 20.8164ZM97.7567 33.081C97.2211 34.6529 96.409 37.2094 95.9425 38.7814L95.0785 41.6316C102.94 41.7007 105.256 41.7007 105.307 41.6834C105.359 41.6488 104.979 40.2324 104.461 38.5223C103.942 36.8121 103.217 34.4801 102.819 33.3401C102.439 32.2 101.748 30.3171 101.299 29.1425C100.729 27.6569 100.4 27.0351 100.21 27.0351C100.037 27.0351 99.7437 27.5706 99.329 28.6415C98.9835 29.5052 98.275 31.509 97.7567 33.081V33.081ZM154.741 29.3843C155.587 29.4361 156.797 29.5916 157.419 29.7298C158.041 29.8853 159.13 30.2826 159.838 30.6281C160.754 31.0599 161.479 31.5781 162.291 32.3727C163.104 33.1846 163.605 33.8756 164.002 34.722C164.313 35.3957 164.607 36.363 164.676 36.8812C164.728 37.3994 164.728 38.4359 164.641 39.1787C164.572 39.9042 164.348 40.9233 164.175 41.4243C163.967 41.9598 163.466 42.7371 162.914 43.3417C162.274 44.0499 161.635 44.5163 160.788 44.9309C160.097 45.2764 158.991 45.6391 158.197 45.7773C157.263 45.9501 155.501 46.0364 152.788 46.0364C150.231 46.0364 148.78 46.1055 148.78 46.2092C148.78 46.3128 148.935 46.6756 149.108 47.0383C149.281 47.3838 149.782 48.0057 150.179 48.4202C150.646 48.8694 151.32 49.3012 151.89 49.5085C152.408 49.6985 153.428 49.9403 154.136 50.0267C154.844 50.1131 155.812 50.1476 156.296 50.0958C156.762 50.0267 157.592 49.8712 158.11 49.7158C158.628 49.5776 159.7 49.1976 160.477 48.8694C161.272 48.5411 161.946 48.2993 161.998 48.3339C162.05 48.3511 162.516 49.4221 163.034 50.7004C163.57 51.9787 163.985 53.0842 163.985 53.1706C163.985 53.2397 163.259 53.637 162.378 54.0688C161.514 54.4834 160.011 55.0362 159.06 55.2953C157.885 55.5889 156.659 55.7617 155.259 55.8308C153.998 55.8999 152.598 55.848 151.717 55.7271C150.905 55.6062 149.816 55.3989 149.298 55.2434C148.78 55.1053 147.847 54.7252 147.225 54.4143C146.603 54.1034 145.67 53.516 145.151 53.0842C144.633 52.6696 143.804 51.7368 143.337 51.0286C142.819 50.2858 142.266 49.1803 142.007 48.3684C141.747 47.6084 141.454 46.2955 141.333 45.4318C141.212 44.499 141.177 42.9789 141.229 41.6316C141.281 40.4051 141.454 38.885 141.627 38.2631C141.782 37.6413 142.179 36.553 142.508 35.8448C142.836 35.1366 143.441 34.1174 143.855 33.5992C144.287 33.081 145.03 32.3382 145.531 31.9409C146.033 31.5436 146.827 31.0426 147.311 30.8008C147.778 30.559 148.762 30.1789 149.471 29.9716C150.179 29.7471 151.302 29.5225 151.976 29.4361C152.633 29.3671 153.877 29.3498 154.741 29.3843V29.3843ZM150.093 36.8985C149.713 37.3131 149.229 38.0559 149.039 38.5223C148.832 39.0059 148.607 39.6278 148.538 39.9042L148.4 40.4224C155.155 40.2496 156.071 40.1633 156.555 39.9387C156.883 39.7833 157.263 39.455 157.367 39.2132C157.488 38.9887 157.592 38.5913 157.592 38.3495C157.592 38.1077 157.488 37.6586 157.367 37.3649C157.246 37.054 156.952 36.6048 156.711 36.3803C156.486 36.1557 155.985 35.8275 155.605 35.6548C155.138 35.4475 154.516 35.3438 153.704 35.3266C152.788 35.3266 152.287 35.4302 151.631 35.7411C151.147 35.9484 150.456 36.4839 150.093 36.8985V36.8985ZM178.585 29.5225C180.428 29.5686 181.695 29.6837 182.386 29.868C182.956 30.0235 183.993 30.4208 184.667 30.749C185.427 31.1117 186.274 31.699 186.792 32.2173C187.259 32.7009 187.863 33.4437 188.123 33.9101C188.382 34.3592 188.779 35.2229 189.004 35.8448C189.228 36.4667 189.522 37.7104 189.66 38.6086C189.781 39.5069 189.902 41.1479 189.902 42.2362C189.902 43.3244 189.781 44.9309 189.643 45.7773C189.488 46.641 189.211 47.8329 189.021 48.4548C188.814 49.0766 188.382 50.0785 188.036 50.7004C187.708 51.3223 186.948 52.3241 186.378 52.9287C185.79 53.5161 184.857 54.2761 184.287 54.6043C183.717 54.9152 182.818 55.3125 182.3 55.4853C181.557 55.7271 180.779 55.7962 178.671 55.7962C176.753 55.7789 175.682 55.6926 174.87 55.4853C174.248 55.3298 173.574 55.1571 172.97 55.0189V65.2105H165.713V33.2537L166.697 32.6837C167.25 32.3554 168.322 31.8372 169.082 31.4918C169.842 31.1635 171 30.7144 171.674 30.4899C172.33 30.2653 173.54 29.9544 174.352 29.7816C175.527 29.5225 176.373 29.4707 178.585 29.5225V29.5225ZM175.907 35.6893C175.475 35.793 174.646 36.1039 174.041 36.3803L172.97 36.8812L173.056 49.3876C174.386 49.7503 175.596 49.8885 176.598 49.8885C178.239 49.9231 178.499 49.8885 179.363 49.4567C179.881 49.2148 180.607 48.6793 180.952 48.2993C181.315 47.902 181.764 47.2802 181.954 46.9001C182.144 46.5201 182.421 45.6909 182.576 45.0518C182.784 44.1881 182.835 43.3417 182.766 41.8043C182.715 40.4915 182.576 39.4205 182.404 38.8677C182.231 38.4013 181.885 37.6931 181.626 37.3131C181.367 36.933 180.814 36.4148 180.382 36.1557C179.915 35.8621 179.224 35.6202 178.585 35.5511C178.015 35.4648 177.358 35.4302 177.116 35.4648C176.874 35.482 176.339 35.5857 175.907 35.6893V35.6893Z" fill="url(#paint0_linear_3565_181)"/>
</g>
<path d="M101.975 22.3558L114.596 59.9923H106.37L103.44 51.0903H91.0449L88.2278 59.9923H79.7202L92.7915 22.3558H101.975ZM92.9606 44.949H101.525L97.2989 30.131L92.9606 44.949ZM134.901 53.344V37.2301C133.887 36.7418 132.535 36.4977 130.845 36.4977C126.375 36.4977 124.14 39.7092 124.14 46.1322C124.14 49.1371 124.628 51.3156 125.605 52.6678C126.582 54.0201 128.065 54.6962 130.056 54.6962C131.897 54.6962 133.512 54.2454 134.901 53.344ZM143.803 60.274H136.423L135.578 57.6259C133.286 59.7294 130.638 60.7811 127.633 60.7811C124.027 60.7811 121.21 59.4477 119.182 56.7808C117.154 54.0764 116.14 50.5081 116.14 46.0758C116.14 44.3856 116.271 42.8268 116.534 41.3994C116.797 39.9346 117.248 38.526 117.886 37.1738C118.562 35.8216 119.407 34.676 120.422 33.7369C121.436 32.7979 122.713 32.0467 124.253 31.4833C125.83 30.9198 127.615 30.6381 129.605 30.6381C131.709 30.6381 133.474 30.9386 134.901 31.5396V20.4966H142.789V53.7947C142.864 56.0484 143.203 58.2081 143.803 60.274ZM162.714 30.6945C165.869 30.6945 168.367 31.4269 170.208 32.8918C172.086 34.3567 173.025 36.4226 173.025 39.0894C173.025 40.9299 172.612 42.5451 171.785 43.9348C170.959 45.287 169.87 46.3388 168.517 47.09C167.203 47.8412 165.813 48.4046 164.348 48.7803C162.883 49.1183 161.381 49.2873 159.841 49.2873C158.376 49.2873 157.024 49.1183 155.784 48.7803C155.822 50.6583 156.61 52.0669 158.15 53.0059C159.728 53.9074 161.813 54.3581 164.404 54.3581C167.034 54.3581 169.419 53.9449 171.56 53.1186L172.349 58.8091C169.532 59.936 165.869 60.4994 161.362 60.4994C156.592 60.4994 153.061 59.1847 150.77 56.5554C148.441 53.8886 147.276 50.5081 147.276 46.4139C147.276 44.348 147.558 42.3948 148.122 40.5543C148.685 38.7138 149.549 37.0423 150.713 35.5399C151.915 34.0374 153.53 32.8542 155.559 31.9903C157.625 31.1264 160.01 30.6945 162.714 30.6945ZM165.137 39.2021C165.137 38.4884 164.836 37.8499 164.235 37.2865C163.672 36.7231 162.996 36.4414 162.207 36.4414C160.104 36.4414 158.451 37.1362 157.249 38.526C156.047 39.9158 155.39 41.869 155.277 44.3856C156.066 44.6485 156.93 44.78 157.869 44.78C159.709 44.78 161.381 44.2917 162.883 43.3151C164.386 42.3009 165.137 40.9299 165.137 39.2021ZM185.512 71.9932H177.624V32.9481C182.92 31.3706 187.296 30.5818 190.751 30.5818C200.067 30.5818 204.724 35.446 204.724 45.1744C204.724 49.569 203.766 53.1749 201.851 55.992C199.71 59.1472 196.047 60.7248 190.864 60.7248C189.7 60.7248 187.915 60.5182 185.512 60.105V71.9932ZM185.512 37.2865V53.7947C186.976 54.2079 188.31 54.4145 189.512 54.4145C191.878 54.4145 193.662 53.6069 194.864 51.9917C196.104 50.3766 196.724 48.0854 196.724 45.118C196.724 39.5214 194.489 36.7231 190.019 36.7231C188.366 36.7231 186.864 36.9109 185.512 37.2865ZM212.136 50.6959V36.554H207.065V31.1452H212.305V24.5532L220.249 23.8771V31.0889H228.475L228.024 36.554H220.193V51.4283C220.193 52.5552 220.362 53.344 220.7 53.7947C221.075 54.2454 221.714 54.4708 222.615 54.4708C223.892 54.4708 225.207 54.3018 226.559 53.9637L227.404 59.5416C225.526 60.3304 223.404 60.7248 221.038 60.7248C217.507 60.7248 215.084 59.9172 213.77 58.302C213.018 57.2128 212.549 56.0484 212.361 54.8088C212.211 53.6444 212.136 52.2735 212.136 50.6959Z" fill="#FDFDFD"/>
<defs>
<linearGradient id="paint0_linear_3565_181" x1="-14.6161" y1="100.01" x2="75.3057" y2="8.52913" gradientUnits="userSpaceOnUse">
<stop offset="0.558729" stop-color="#F14810"/>
<stop offset="0.88593" stop-color="#FF551C" stop-opacity="0.67"/>
</linearGradient>
<clipPath id="clip0_3565_181">
<rect width="80.3922" height="82" fill="white" transform="translate(0 0.000366211)"/>
</clipPath>
</defs>
</svg>
